<?xml version="1.0" encoding="utf-8"?>
<svg viewBox="429.655 0.338 572.205 126.21" xmlns="http://www.w3.org/2000/svg">
  <path d="M 508.945 27.451 L 485.971 28.872 C 485.578 26.898 484.734 25.122 483.438 23.544 C 482.142 21.926 480.433 20.643 478.313 19.696 C 476.231 18.709 473.738 18.216 470.832 18.216 C 466.944 18.216 463.665 19.045 460.994 20.702 C 458.324 22.32 456.989 24.491 456.989 27.214 C 456.989 29.385 457.852 31.22 459.581 32.719 C 461.308 34.219 464.273 35.423 468.475 36.33 L 484.852 39.645 C 493.649 41.461 500.207 44.382 504.527 48.407 C 508.847 52.433 511.007 57.721 511.007 64.272 C 511.007 70.231 509.259 75.46 505.764 79.959 C 502.308 84.459 497.557 87.971 491.508 90.497 C 485.5 92.983 478.568 94.227 470.714 94.227 C 458.736 94.227 449.193 91.72 442.085 86.708 C 435.016 81.656 430.872 74.789 429.655 66.107 L 454.338 64.805 C 455.084 68.475 456.89 71.277 459.757 73.211 C 462.624 75.105 466.296 76.052 470.773 76.052 C 475.172 76.052 478.706 75.204 481.376 73.507 C 484.086 71.771 485.461 69.54 485.5 66.818 C 485.461 64.529 484.499 62.654 482.614 61.194 C 480.728 59.694 477.822 58.549 473.895 57.761 L 458.226 54.623 C 449.389 52.847 442.811 49.768 438.492 45.388 C 434.211 41.007 432.071 35.423 432.071 28.635 C 432.071 22.794 433.642 17.762 436.783 13.539 C 439.964 9.316 444.422 6.061 450.155 3.772 C 455.928 1.483 462.683 0.338 470.419 0.338 C 481.848 0.338 490.841 2.765 497.399 7.619 C 503.997 12.474 507.846 19.084 508.945 27.451 Z M 526.808 126.548 L 526.808 1.522 L 551.55 1.522 L 551.55 16.795 L 552.67 16.795 C 553.769 14.348 555.359 11.862 557.441 9.336 C 559.561 6.771 562.311 4.64 565.688 2.943 C 569.105 1.206 573.346 0.338 578.412 0.338 C 585.01 0.338 591.097 2.075 596.674 5.548 C 602.251 8.981 606.708 14.171 610.046 21.117 C 613.384 28.023 615.053 36.685 615.053 47.104 C 615.053 57.247 613.423 65.811 610.163 72.796 C 606.943 79.742 602.545 85.011 596.968 88.603 C 591.431 92.154 585.226 93.93 578.353 93.93 C 573.483 93.93 569.34 93.121 565.924 91.503 C 562.546 89.885 559.778 87.852 557.617 85.406 C 555.458 82.919 553.808 80.413 552.67 77.888 L 551.904 77.888 L 551.904 126.548 L 526.808 126.548 Z M 551.374 46.987 C 551.374 52.393 552.119 57.11 553.612 61.134 C 555.104 65.16 557.264 68.297 560.092 70.547 C 562.919 72.757 566.355 73.862 570.401 73.862 C 574.485 73.862 577.941 72.738 580.769 70.487 C 583.596 68.198 585.737 65.041 587.189 61.017 C 588.681 56.951 589.428 52.274 589.428 46.987 C 589.428 41.738 588.701 37.12 587.248 33.134 C 585.795 29.148 583.655 26.03 580.828 23.781 C 577.999 21.531 574.524 20.406 570.401 20.406 C 566.317 20.406 562.86 21.492 560.033 23.662 C 557.245 25.833 555.104 28.911 553.612 32.897 C 552.119 36.883 551.374 41.579 551.374 46.987 Z M 657.584 94.167 C 651.812 94.167 646.667 93.161 642.15 91.148 C 637.634 89.095 634.06 86.077 631.43 82.091 C 628.838 78.065 627.542 73.054 627.542 67.054 C 627.542 62.003 628.465 57.761 630.31 54.327 C 632.155 50.894 634.67 48.131 637.85 46.04 C 641.031 43.947 644.644 42.369 648.689 41.303 C 652.774 40.237 657.054 39.488 661.531 39.054 C 666.793 38.501 671.035 37.988 674.255 37.515 C 677.475 37.001 679.812 36.252 681.266 35.265 C 682.718 34.278 683.445 32.818 683.445 30.884 L 683.445 30.529 C 683.445 26.78 682.267 23.879 679.91 21.827 C 677.593 19.775 674.294 18.749 670.013 18.749 C 665.497 18.749 661.904 19.755 659.234 21.768 C 656.563 23.741 654.796 26.227 653.932 29.227 L 630.723 27.332 C 631.9 21.807 634.218 17.032 637.673 13.007 C 641.13 8.942 645.587 5.824 651.046 3.653 C 656.544 1.443 662.905 0.338 670.132 0.338 C 675.159 0.338 679.97 0.93 684.565 2.114 C 689.198 3.298 693.302 5.133 696.876 7.619 C 700.488 10.106 703.336 13.303 705.417 17.21 C 707.499 21.077 708.54 25.714 708.54 31.121 L 708.54 92.45 L 684.741 92.45 L 684.741 79.841 L 684.034 79.841 C 682.581 82.683 680.637 85.188 678.202 87.36 C 675.767 89.49 672.842 91.168 669.424 92.391 C 666.008 93.576 662.061 94.167 657.584 94.167 Z M 664.771 76.763 C 668.462 76.763 671.722 76.032 674.549 74.573 C 677.378 73.073 679.596 71.06 681.206 68.534 C 682.817 66.008 683.621 63.147 683.621 59.951 L 683.621 50.301 C 682.836 50.814 681.756 51.287 680.381 51.722 C 679.047 52.117 677.534 52.492 675.845 52.847 C 674.157 53.163 672.468 53.459 670.78 53.735 C 669.091 53.971 667.559 54.189 666.185 54.386 C 663.239 54.821 660.667 55.51 658.468 56.458 C 656.269 57.405 654.56 58.688 653.343 60.306 C 652.126 61.885 651.517 63.858 651.517 66.226 C 651.517 69.659 652.754 72.284 655.228 74.099 C 657.741 75.875 660.923 76.763 664.771 76.763 Z M 768.891 94.227 C 759.622 94.227 751.65 92.253 744.974 88.307 C 738.337 84.32 733.232 78.795 729.658 71.731 C 726.124 64.666 724.356 56.537 724.356 47.342 C 724.356 38.027 726.143 29.858 729.717 22.833 C 733.33 15.769 738.455 10.264 745.092 6.317 C 751.729 2.331 759.622 0.338 768.773 0.338 C 776.667 0.338 783.578 1.779 789.508 4.66 C 795.439 7.541 800.131 11.586 803.588 16.795 C 807.043 22.005 808.948 28.122 809.301 35.147 L 785.62 35.147 C 784.953 30.608 783.186 26.958 780.319 24.195 C 777.491 21.393 773.78 19.992 769.185 19.992 C 765.297 19.992 761.9 21.058 758.994 23.189 C 756.127 25.28 753.889 28.339 752.279 32.364 C 750.668 36.39 749.864 41.264 749.864 46.987 C 749.864 52.788 750.649 57.721 752.219 61.786 C 753.83 65.851 756.088 68.948 758.994 71.08 C 761.9 73.211 765.297 74.277 769.185 74.277 C 772.052 74.277 774.624 73.685 776.902 72.5 C 779.219 71.317 781.124 69.6 782.616 67.35 C 784.148 65.061 785.15 62.319 785.62 59.121 L 809.301 59.121 C 808.908 66.068 807.024 72.185 803.647 77.473 C 800.308 82.722 795.694 86.826 789.803 89.786 C 783.912 92.746 776.941 94.227 768.891 94.227 Z M 866.604 94.227 C 857.297 94.227 849.285 92.332 842.569 88.543 C 835.894 84.715 830.749 79.308 827.136 72.323 C 823.523 65.298 821.716 56.991 821.716 47.4 C 821.716 38.047 823.523 29.839 827.136 22.774 C 830.749 15.71 835.835 10.205 842.393 6.258 C 848.99 2.311 856.727 0.338 865.602 0.338 C 871.572 0.338 877.128 1.305 882.274 3.239 C 887.458 5.133 891.974 7.994 895.823 11.823 C 899.71 15.651 902.734 20.466 904.894 26.267 C 907.054 32.029 908.134 38.778 908.134 46.513 L 908.134 53.439 L 831.731 53.439 L 831.731 37.811 L 884.512 37.811 C 884.512 34.18 883.726 30.963 882.156 28.161 C 880.585 25.359 878.406 23.169 875.617 21.59 C 872.868 19.972 869.667 19.163 866.015 19.163 C 862.206 19.163 858.828 20.051 855.883 21.827 C 852.977 23.564 850.699 25.912 849.049 28.872 C 847.4 31.792 846.556 35.048 846.516 38.639 L 846.516 53.498 C 846.516 57.997 847.341 61.885 848.99 65.16 C 850.679 68.436 853.055 70.961 856.118 72.738 C 859.182 74.513 862.815 75.401 867.017 75.401 C 869.805 75.401 872.357 75.007 874.674 74.217 C 876.992 73.428 878.975 72.244 880.624 70.666 C 882.274 69.087 883.53 67.153 884.394 64.864 L 907.603 66.403 C 906.426 72.007 904.01 76.901 900.358 81.084 C 896.745 85.228 892.071 88.464 886.338 90.793 C 880.644 93.082 874.066 94.227 866.604 94.227 Z M 999.794 27.451 L 976.819 28.872 C 976.425 26.898 975.585 25.122 974.289 23.544 C 972.993 21.926 971.282 20.643 969.167 19.696 C 967.083 18.709 964.585 18.216 961.682 18.216 C 957.794 18.216 954.518 19.045 951.843 20.702 C 949.178 22.32 947.841 24.491 947.841 27.214 C 947.841 29.385 948.701 31.22 950.433 32.719 C 952.154 34.219 955.119 35.423 959.328 36.33 L 975.699 39.645 C 984.501 41.461 991.054 44.382 995.377 48.407 C 999.7 52.433 1001.86 57.721 1001.86 64.272 C 1001.86 70.231 1000.1 75.46 996.611 79.959 C 993.158 84.459 988.41 87.971 982.355 90.497 C 976.352 92.983 969.416 94.227 961.568 94.227 C 949.582 94.227 940.042 91.72 932.934 86.708 C 925.865 81.656 921.722 74.789 920.505 66.107 L 945.187 64.805 C 945.933 68.475 947.737 71.277 950.609 73.211 C 953.47 75.105 957.141 76.052 961.62 76.052 C 966.026 76.052 969.551 75.204 972.226 73.507 C 974.932 71.771 976.311 69.54 976.352 66.818 C 976.311 64.529 975.346 62.654 973.459 61.194 C 971.573 59.694 968.67 58.549 964.74 57.761 L 949.074 54.623 C 940.239 52.847 933.661 49.768 929.34 45.388 C 925.061 41.007 922.92 35.423 922.92 28.635 C 922.92 22.794 924.49 17.762 927.633 13.539 C 930.814 9.316 935.271 6.061 941.004 3.772 C 946.773 1.483 953.533 0.338 961.267 0.338 C 972.692 0.338 981.691 2.765 988.244 7.619 C 994.848 12.474 998.695 19.084 999.794 27.451 Z" fill="#0F498C"/>
</svg>