<?xml version="1.0" encoding="utf-8"?>
<svg viewBox="0.365 0.338 277.765 126.21" xmlns="http://www.w3.org/2000/svg">
  <path d="M 79.655 27.451 L 56.681 28.872 C 56.288 26.898 55.444 25.122 54.148 23.544 C 52.852 21.926 51.143 20.643 49.022 19.696 C 46.941 18.709 44.448 18.216 41.541 18.216 C 37.653 18.216 34.374 19.045 31.704 20.702 C 29.033 22.32 27.698 24.491 27.698 27.214 C 27.698 29.385 28.562 31.22 30.289 32.719 C 32.018 34.219 34.983 35.423 39.185 36.33 L 55.561 39.645 C 64.358 41.461 70.917 44.382 75.236 48.407 C 79.556 52.433 81.716 57.721 81.716 64.272 C 81.716 70.231 79.969 75.46 76.474 79.959 C 73.017 84.459 68.266 87.971 62.218 90.497 C 56.209 92.983 49.278 94.227 41.423 94.227 C 29.446 94.227 19.902 91.72 12.794 86.708 C 5.725 81.656 1.582 74.789 0.365 66.107 L 25.046 64.805 C 25.793 68.475 27.6 71.277 30.467 73.211 C 33.333 75.105 37.005 76.052 41.483 76.052 C 45.881 76.052 49.415 75.204 52.086 73.507 C 54.796 71.771 56.17 69.54 56.209 66.818 C 56.17 64.529 55.207 62.654 53.323 61.194 C 51.438 59.694 48.532 58.549 44.604 57.761 L 28.934 54.623 C 20.099 52.847 13.521 49.768 9.201 45.388 C 4.92 41.007 2.78 35.423 2.78 28.635 C 2.78 22.794 4.351 17.762 7.492 13.539 C 10.673 9.316 15.131 6.061 20.864 3.772 C 26.637 1.483 33.393 0.338 41.129 0.338 C 52.556 0.338 61.55 2.765 68.108 7.619 C 74.706 12.474 78.555 19.084 79.655 27.451 Z M 113.011 126.548 C 109.83 126.548 106.845 126.292 104.057 125.779 C 101.308 125.305 99.03 124.693 97.224 123.943 L 102.878 105.119 C 105.824 106.026 108.475 106.52 110.831 106.599 C 113.226 106.677 115.289 106.125 117.017 104.941 C 118.784 103.757 120.217 101.744 121.317 98.903 L 122.79 95.055 L 90.331 1.522 L 116.722 1.522 L 135.455 68.297 L 136.397 68.297 L 155.307 1.522 L 181.875 1.522 L 146.706 102.277 C 145.017 107.171 142.72 111.433 139.814 115.064 C 136.947 118.734 133.314 121.556 128.916 123.53 C 124.518 125.542 119.216 126.548 113.011 126.548 Z M 219.811 39.882 L 219.811 92.45 L 194.716 92.45 L 194.716 1.522 L 218.633 1.522 L 218.633 17.565 L 219.693 17.565 C 221.696 12.276 225.053 8.093 229.766 5.015 C 234.479 1.897 240.193 0.338 246.909 0.338 C 253.191 0.338 258.671 1.719 263.344 4.482 C 268.017 7.245 271.65 11.191 274.242 16.322 C 276.834 21.413 278.13 27.49 278.13 34.555 L 278.13 92.45 L 253.035 92.45 L 253.035 39.054 C 253.074 33.489 251.66 29.148 248.793 26.03 C 245.927 22.873 241.98 21.294 236.953 21.294 C 233.576 21.294 230.591 22.024 227.999 23.485 C 225.446 24.945 223.443 27.076 221.991 29.878 C 220.576 32.641 219.85 35.975 219.811 39.882 Z" fill="#0F498C"/>
</svg>